<svg xmlns="http://www.w3.org/2000/svg" width="410" height="404" viewBox="0 0 410 404" fill="none">
<path d="M399.641 59.5246L215.643 388.545C211.182 396.381 199.56 396.372 195.109 388.531L10.3599 59.5311C5.38695 50.8366 12.3094 39.913 22.2599 41.4609L205 70.5L387.74 41.4609C397.68 39.917 404.606 50.8205 399.641 59.5246Z" fill="url(#paint0_linear)"/>
<path d="M292.965 1.57598L156.243 28.0949C153.368 28.658 151.433 31.4195 151.886 34.3137L183.87 240.972C184.476 244.897 188.696 247.235 192.393 245.611L253.072 218.862C256.768 217.238 258.151 212.703 256.016 209.387L211.564 141.14L284.355 179.151C288.249 181.197 292.952 178.63 293.178 174.327L299.623 53.0917C299.794 49.8713 296.943 47.1718 293.793 47.7452L207.127 63.2353C203.977 63.8088 201.123 61.1083 201.294 57.8879L202.794 29.9439C202.965 26.7235 200.111 24.0239 196.961 24.5974L134.64 35.5509C131.49 36.1243 129.637 39.3765 130.88 42.3095L197.299 199.777C198.541 202.71 202.179 203.867 205.037 202.144L265.661 165.857C268.527 164.139 269.627 160.407 267.882 157.684L206.429 58.7873L295.716 42.198C299.519 41.5045 302.514 38.3196 302.84 34.4802L304.357 16.4978C304.723 12.1904 301.068 8.92819 296.803 9.72356Z" fill="url(#paint1_linear)"/>
<defs>
<linearGradient id="paint0_linear" x1="6" y1="32" x2="235" y2="344" gradientUnits="userSpaceOnUse">
<stop stop-color="#41D1FF"/>
<stop offset="1" stop-color="#BD34FE"/>
</linearGradient>
<linearGradient id="paint1_linear" x1="194.651" y1="8.81818" x2="236.076" y2="292.989" gradientUnits="userSpaceOnUse">
<stop stop-color="#FFEA83"/>
<stop offset="0.0833333" stop-color="#FFDD35"/>
<stop offset="1" stop-color="#FFA800"/>
</linearGradient>
</defs>
</svg>

